<svg width="350" height="350" viewBox="0 0 350 350" fill="none" xmlns="http://www.w3.org/2000/svg">
<g clip-path="url(#clip0_133_446)">
<path d="M278.068 270.102C271.148 277.234 264.957 281.427 260.216 284.593C213.983 315.463 161.133 306.565 144.793 303.524C118.431 298.618 96.1776 295.156 77.058 277.882C33.6123 238.631 35.7254 156.75 68.9232 106.028C72.8595 100.014 106.007 50.8786 158.971 43.9551C160.267 43.7858 161.233 43.6894 162.08 43.5997C170.273 42.7322 221.046 38.1538 262.447 72.839C268.373 77.804 277.91 86.7596 286.754 100.418C319.091 150.361 319.194 227.711 278.068 270.102Z" fill="white"/>
<path d="M288.168 117.13L282.212 129.81C282.212 129.81 294.952 137.874 299.272 136.527C303.593 135.18 305.44 132.647 288.168 117.13Z" fill="url(#paint0_linear_133_446)"/>
<path d="M277.595 135.284C277.501 135.015 272.53 140.572 260.698 141.006C260.698 141.006 270.613 158.736 274.4 159.429C278.187 160.122 284.034 153.749 277.595 135.284Z" fill="url(#paint1_linear_133_446)"/>
<path d="M257.22 141.327C256.823 141.817 247.768 160.617 243.319 164.838C238.871 169.058 236.904 158.198 236.461 152.578C236.018 146.959 237.072 136.361 237.072 136.361L257.22 141.327Z" fill="url(#paint2_linear_133_446)"/>
<path d="M144.895 87.909C144.895 87.909 131.169 99.5901 125.902 99.3617C120.635 99.1333 121.754 74.3362 121.754 74.3362L144.895 87.909Z" fill="url(#paint3_linear_133_446)"/>
<path d="M117.696 73.0659C118.402 73.4724 110.023 86.6133 103.416 89.4408C96.8093 92.2682 92.5183 66.5102 92.5183 66.5102C92.5183 66.5102 107.123 66.9811 117.696 73.0659Z" fill="url(#paint4_linear_133_446)"/>
<path d="M81.4927 66.9106C81.4927 66.9106 82.8484 86.231 81.1492 91.5764C79.4502 96.9219 67.1913 81.2586 59.8761 80.0518C59.8761 80.0518 65.6099 69.7204 81.4927 66.9106Z" fill="url(#paint5_linear_133_446)"/>
<path d="M52.1648 92.5222L49.9324 105.626C49.9324 105.626 60.284 107.651 63.4714 107.821C66.6589 107.991 68.4899 101.488 52.1648 92.5222Z" fill="url(#paint6_linear_133_446)"/>
<path d="M69.2393 70.2273C77.1522 66.0544 85.883 64.49 94.7536 65.4726C103.6 66.4526 112.113 69.3973 120.212 72.9909C128.7 76.7574 136.833 81.2795 144.926 85.8178C155.784 91.9068 166.531 98.1913 177.254 104.515C182.659 107.703 188.061 110.897 193.472 114.075C198.85 117.232 204.186 120.514 209.695 123.438C215.084 126.298 220.698 128.699 226.378 130.915C231.834 133.045 237.328 135.208 242.912 136.984C252.342 139.982 263.521 141.662 272.763 137.087C276.627 135.174 279.496 132.045 281.802 128.46C284.604 124.105 286.479 119.684 287.18 114.535C287.485 112.294 287.75 110.072 288.249 107.861C288.331 107.495 288.951 107.584 288.907 107.964C288.361 112.662 288.512 117.534 286.897 122.044C285.428 126.143 283.04 130.301 280.194 133.601C274.119 140.647 264.283 142.469 255.389 141.719C250.386 141.297 245.488 140.08 240.743 138.474C235.103 136.565 229.515 134.418 223.985 132.213C218.405 129.988 212.894 127.56 207.612 124.691C202.123 121.709 196.779 118.434 191.403 115.253C171.165 103.274 151.108 90.8616 130.251 79.9711C122.304 75.821 114.104 72.0192 105.46 69.5576C97.1572 67.1932 88.2366 66.0946 79.7649 68.2463C70.1829 70.6798 61.4641 76.4329 56.2516 84.9197C53.2098 89.8721 52.0131 95.2512 51.3267 100.961C51.0376 103.364 50.7336 105.791 50.8883 108.215C51.0516 110.771 53.5875 119.373 53.0798 121.383C52.923 122.004 51.8617 121.862 51.9502 121.207C52.2632 118.887 49.2897 110.07 49.1656 107.733C49.0318 105.208 49.3316 102.671 49.6033 100.164C49.8926 97.4935 50.2563 94.8171 50.9265 92.212C53.3688 82.7145 60.693 74.7343 69.2393 70.2273Z" fill="#B2B8C1"/>
<path d="M182.861 65.3624L179.471 79.2183C178.719 82.2924 180.327 85.4545 183.253 86.6583L266.004 120.697C269.286 122.047 273.04 120.469 274.371 117.179L293.757 69.2846C295.46 65.0769 292.364 60.4828 287.824 60.4828H189.078C186.129 60.4828 183.561 62.4978 182.861 65.3624Z" fill="url(#paint7_linear_133_446)"/>
<path d="M268.834 127.464C268.792 127.464 268.749 127.46 268.705 127.451C268.239 127.357 267.779 127.217 267.336 127.035L264.928 126.045C264.595 125.908 264.437 125.528 264.573 125.195C264.71 124.863 265.09 124.704 265.423 124.841L267.831 125.831C268.197 125.982 268.578 126.098 268.963 126.175C269.315 126.247 269.543 126.59 269.472 126.942C269.409 127.251 269.138 127.464 268.834 127.464ZM272.677 127.119C272.418 127.119 272.173 126.963 272.072 126.707C271.939 126.373 272.103 125.995 272.437 125.862C273.547 125.423 274.498 124.68 275.186 123.713C275.394 123.42 275.801 123.352 276.093 123.56C276.386 123.769 276.455 124.175 276.246 124.468C275.412 125.64 274.261 126.54 272.916 127.073C272.838 127.104 272.757 127.119 272.677 127.119ZM261.556 124.605C261.474 124.605 261.39 124.589 261.309 124.556L257.69 123.068C257.358 122.931 257.199 122.55 257.336 122.218C257.472 121.886 257.853 121.727 258.185 121.864L261.804 123.352C262.136 123.489 262.295 123.869 262.158 124.202C262.055 124.453 261.812 124.605 261.556 124.605ZM254.319 121.628C254.236 121.628 254.152 121.612 254.071 121.579L250.453 120.09C250.12 119.954 249.962 119.573 250.098 119.241C250.235 118.908 250.615 118.749 250.948 118.886L254.567 120.375C254.899 120.512 255.058 120.892 254.921 121.225C254.817 121.476 254.575 121.628 254.319 121.628ZM277.35 121.197C277.269 121.197 277.186 121.182 277.106 121.15C276.773 121.015 276.612 120.635 276.747 120.302L278.215 116.675C278.35 116.342 278.729 116.181 279.063 116.316C279.396 116.451 279.557 116.831 279.422 117.164L277.954 120.791C277.851 121.044 277.607 121.197 277.35 121.197ZM247.081 118.651C246.999 118.651 246.915 118.635 246.834 118.602L243.215 117.113C242.883 116.977 242.724 116.596 242.861 116.264C242.997 115.931 243.378 115.772 243.71 115.909L247.329 117.398C247.661 117.535 247.82 117.915 247.683 118.248C247.58 118.499 247.337 118.651 247.081 118.651ZM239.844 115.674C239.761 115.674 239.677 115.658 239.596 115.625L235.978 114.136C235.645 114 235.487 113.619 235.623 113.287C235.76 112.954 236.14 112.795 236.473 112.932L240.092 114.421C240.424 114.558 240.583 114.938 240.446 115.271C240.342 115.522 240.1 115.674 239.844 115.674ZM280.286 113.944C280.205 113.944 280.122 113.928 280.042 113.896C279.709 113.761 279.548 113.382 279.683 113.048L281.151 109.421C281.286 109.088 281.665 108.927 281.999 109.062C282.332 109.197 282.493 109.576 282.358 109.91L280.89 113.537C280.787 113.79 280.544 113.944 280.286 113.944ZM232.606 112.697C232.524 112.697 232.44 112.681 232.359 112.648L228.74 111.159C228.408 111.023 228.249 110.642 228.386 110.31C228.523 109.977 228.903 109.819 229.235 109.956L232.854 111.444C233.187 111.581 233.345 111.961 233.209 112.294C233.105 112.545 232.862 112.697 232.606 112.697ZM225.369 109.72C225.286 109.72 225.203 109.704 225.122 109.671L221.503 108.182C221.17 108.046 221.012 107.665 221.149 107.333C221.285 107 221.665 106.842 221.998 106.979L225.617 108.467C225.949 108.604 226.108 108.984 225.971 109.316C225.868 109.568 225.625 109.72 225.369 109.72ZM218.131 106.743C218.049 106.743 217.965 106.727 217.884 106.694L214.265 105.205C213.933 105.068 213.774 104.688 213.911 104.356C214.048 104.023 214.428 103.864 214.76 104.001L218.379 105.49C218.712 105.627 218.87 106.007 218.734 106.339C218.63 106.591 218.387 106.743 218.131 106.743ZM283.222 106.689C283.141 106.689 283.058 106.674 282.978 106.642C282.645 106.507 282.484 106.127 282.619 105.794L284.087 102.167C284.222 101.834 284.602 101.673 284.935 101.808C285.268 101.943 285.429 102.322 285.294 102.655L283.826 106.282C283.723 106.536 283.48 106.689 283.222 106.689ZM210.894 103.766C210.811 103.766 210.728 103.75 210.647 103.717L207.028 102.228C206.696 102.091 206.537 101.711 206.674 101.379C206.81 101.046 207.191 100.887 207.523 101.024L211.142 102.513C211.474 102.65 211.633 103.03 211.496 103.362C211.393 103.614 211.15 103.766 210.894 103.766ZM203.656 100.789C203.574 100.789 203.49 100.773 203.409 100.74L199.791 99.2512C199.458 99.1145 199.299 98.7342 199.436 98.4017C199.573 98.0693 199.953 97.9102 200.286 98.0474L203.904 99.5358C204.237 99.6725 204.396 100.053 204.259 100.385C204.155 100.637 203.912 100.789 203.656 100.789ZM286.159 99.4351C286.077 99.4351 285.995 99.4198 285.915 99.3875C285.582 99.2526 285.421 98.8731 285.556 98.5399L287.024 94.9128C287.159 94.5796 287.537 94.4187 287.871 94.5537C288.204 94.6886 288.365 95.068 288.23 95.4012L286.762 99.0283C286.66 99.2815 286.416 99.4351 286.159 99.4351ZM196.419 97.8116C196.337 97.8116 196.253 97.7959 196.172 97.7626L192.553 96.2742C192.221 96.1374 192.062 95.7571 192.199 95.4246C192.335 95.0922 192.715 94.9331 193.048 95.0703L196.667 96.5587C196.999 96.6954 197.158 97.0758 197.021 97.4082C196.918 97.6596 196.675 97.8116 196.419 97.8116ZM189.181 94.8346C189.099 94.8346 189.015 94.8189 188.934 94.7856L185.315 93.297C184.983 93.1602 184.824 92.7799 184.961 92.4475C185.098 92.1149 185.479 91.9564 185.811 92.0931L189.429 93.5817C189.762 93.7185 189.92 94.0988 189.784 94.4312C189.68 94.6826 189.437 94.8346 189.181 94.8346ZM289.095 92.1811C289.014 92.1811 288.931 92.1658 288.851 92.1334C288.518 91.9985 288.357 91.6191 288.492 91.2859L289.96 87.6588C290.095 87.3254 290.474 87.1646 290.807 87.2996C291.141 87.4345 291.301 87.814 291.167 88.1472L289.698 91.7743C289.596 92.0274 289.352 92.1811 289.095 92.1811ZM181.944 91.8577C181.862 91.8577 181.778 91.8419 181.697 91.8085L179.337 90.8379C178.877 90.6484 178.435 90.4127 178.024 90.1375C177.725 89.9377 177.645 89.5335 177.845 89.2347C178.044 88.9359 178.449 88.8556 178.747 89.0557C179.087 89.2827 179.452 89.4774 179.833 89.6341L182.192 90.6046C182.524 90.7414 182.683 91.1217 182.546 91.4542C182.443 91.7056 182.2 91.8577 181.944 91.8577ZM175.921 87.2793C175.669 87.2793 175.429 87.1318 175.323 86.8853C174.92 85.9493 174.716 84.9595 174.716 83.9439C174.716 83.5252 174.752 83.102 174.823 82.6865C174.884 82.3322 175.22 82.0943 175.575 82.155C175.929 82.2157 176.167 82.5521 176.106 82.9064C176.047 83.2494 176.018 83.5983 176.018 83.9436C176.018 84.7818 176.186 85.5984 176.518 86.3711C176.66 86.7013 176.508 87.0842 176.178 87.2261C176.094 87.2622 176.007 87.2793 175.921 87.2793ZM292.031 84.9269C291.95 84.9269 291.867 84.9116 291.787 84.8793C291.454 84.7444 291.293 84.3649 291.428 84.0317L292.896 80.4046C293.031 80.0714 293.41 79.9105 293.744 80.0455C294.077 80.1804 294.238 80.5598 294.103 80.893L292.635 84.5201C292.532 84.7732 292.288 84.9269 292.031 84.9269ZM176.379 79.643C176.327 79.643 176.275 79.637 176.223 79.6243C175.874 79.5388 175.66 79.1865 175.746 78.8374L176.676 75.0364C176.761 74.6872 177.113 74.4731 177.462 74.5588C177.812 74.6443 178.025 74.9965 177.94 75.3457L177.01 79.1466C176.937 79.444 176.672 79.643 176.379 79.643ZM294.967 77.6727C294.886 77.6727 294.803 77.6575 294.723 77.6251C294.39 77.4902 294.229 77.1108 294.364 76.7776L295.832 73.1505C295.967 72.8173 296.346 72.6563 296.68 72.7913C297.013 72.9262 297.174 73.3057 297.039 73.6389L295.571 77.266C295.468 77.5191 295.225 77.6727 294.967 77.6727ZM178.238 72.0414C178.187 72.0414 178.135 72.0354 178.083 72.0227C177.734 71.9372 177.52 71.5849 177.605 71.2358L178.535 67.4348L179.173 67.5649L179.801 67.7384L178.87 71.5449C178.797 71.8423 178.531 72.0414 178.238 72.0414ZM297.585 70.3264C297.569 70.3264 297.554 70.326 297.538 70.3248C297.179 70.2993 296.91 69.9879 296.935 69.6295C296.945 69.4861 296.95 69.3432 296.95 69.2012C296.95 68.1695 296.682 67.1408 296.174 66.2263C296 65.9122 296.113 65.5159 296.427 65.3414C296.741 65.1665 297.138 65.2804 297.312 65.5945C297.927 66.7018 298.252 67.9488 298.252 69.2012C298.252 69.3738 298.246 69.5475 298.233 69.7216C298.209 70.0645 297.923 70.3264 297.585 70.3264ZM181.127 64.8887C180.953 64.8887 180.78 64.8194 180.652 64.6825C180.406 64.42 180.42 64.0081 180.682 63.7626C181.737 62.776 183.044 62.1203 184.461 61.8664C184.813 61.8028 185.153 62.0383 185.216 62.3924C185.28 62.7462 185.044 63.0844 184.69 63.1478C183.521 63.3572 182.442 63.8985 181.572 64.7131C181.446 64.8305 181.286 64.8887 181.127 64.8887ZM293.998 63.8486C293.894 63.8486 293.789 63.8237 293.691 63.7712C292.799 63.2936 291.823 63.0512 290.788 63.0512H290.218C289.859 63.0512 289.567 62.7598 289.567 62.4004C289.567 62.041 289.859 61.7495 290.218 61.7495H290.788C292.04 61.7495 293.223 62.0437 294.306 62.624C294.623 62.7937 294.742 63.1882 294.572 63.5051C294.455 63.7241 294.23 63.8486 293.998 63.8486ZM286.305 63.0512H282.392C282.033 63.0512 281.742 62.7598 281.742 62.4004C281.742 62.041 282.033 61.7495 282.392 61.7495H286.305C286.665 61.7495 286.956 62.041 286.956 62.4004C286.956 62.7598 286.665 63.0512 286.305 63.0512ZM278.479 63.0512H274.566C274.207 63.0512 273.916 62.7598 273.916 62.4004C273.916 62.041 274.207 61.7495 274.566 61.7495H278.479C278.839 61.7495 279.13 62.041 279.13 62.4004C279.13 62.7598 278.839 63.0512 278.479 63.0512ZM270.654 63.0512H266.741C266.381 63.0512 266.09 62.7598 266.09 62.4004C266.09 62.041 266.381 61.7495 266.741 61.7495H270.654C271.013 61.7495 271.304 62.041 271.304 62.4004C271.304 62.7598 271.013 63.0512 270.654 63.0512ZM262.828 63.0512H258.915C258.555 63.0512 258.264 62.7598 258.264 62.4004C258.264 62.041 258.555 61.7495 258.915 61.7495H262.828C263.187 61.7495 263.479 62.041 263.479 62.4004C263.479 62.7598 263.187 63.0512 262.828 63.0512ZM255.002 63.0512H251.089C250.73 63.0512 250.438 62.7598 250.438 62.4004C250.438 62.041 250.73 61.7495 251.089 61.7495H255.002C255.361 61.7495 255.653 62.041 255.653 62.4004C255.653 62.7598 255.361 63.0512 255.002 63.0512ZM247.176 63.0512H243.263C242.904 63.0512 242.612 62.7598 242.612 62.4004C242.612 62.041 242.904 61.7495 243.263 61.7495H247.176C247.535 61.7495 247.827 62.041 247.827 62.4004C247.827 62.7598 247.535 63.0512 247.176 63.0512ZM239.35 63.0512H235.437C235.078 63.0512 234.786 62.7598 234.786 62.4004C234.786 62.041 235.078 61.7495 235.437 61.7495H239.35C239.71 61.7495 240.001 62.041 240.001 62.4004C240.001 62.7598 239.71 63.0512 239.35 63.0512ZM231.524 63.0512H227.612C227.252 63.0512 226.961 62.7598 226.961 62.4004C226.961 62.041 227.252 61.7495 227.612 61.7495H231.524C231.884 61.7495 232.175 62.041 232.175 62.4004C232.175 62.7598 231.884 63.0512 231.524 63.0512ZM223.699 63.0512H219.786C219.426 63.0512 219.135 62.7598 219.135 62.4004C219.135 62.041 219.426 61.7495 219.786 61.7495H223.699C224.058 61.7495 224.349 62.041 224.349 62.4004C224.349 62.7598 224.058 63.0512 223.699 63.0512ZM215.873 63.0512H211.96C211.6 63.0512 211.309 62.7598 211.309 62.4004C211.309 62.041 211.6 61.7495 211.96 61.7495H215.873C216.232 61.7495 216.524 62.041 216.524 62.4004C216.524 62.7598 216.232 63.0512 215.873 63.0512ZM208.047 63.0512H204.134C203.775 63.0512 203.483 62.7598 203.483 62.4004C203.483 62.041 203.775 61.7495 204.134 61.7495H208.047C208.406 61.7495 208.698 62.041 208.698 62.4004C208.698 62.7598 208.406 63.0512 208.047 63.0512ZM200.221 63.0512H196.308C195.949 63.0512 195.657 62.7598 195.657 62.4004C195.657 62.041 195.949 61.7495 196.308 61.7495H200.221C200.581 61.7495 200.872 62.041 200.872 62.4004C200.872 62.7598 200.581 63.0512 200.221 63.0512ZM192.395 63.0512H188.482C188.123 63.0512 187.831 62.7598 187.831 62.4004C187.831 62.041 188.123 61.7495 188.482 61.7495H192.395C192.755 61.7495 193.046 62.041 193.046 62.4004C193.046 62.7598 192.755 63.0512 192.395 63.0512Z" fill="#BFC8D6"/>
<path d="M115.638 262.767C115.638 267.034 124.617 270.493 135.693 270.493C146.768 270.493 155.747 267.034 155.747 262.767C155.747 258.5 146.768 251.519 135.693 251.519C124.617 251.518 115.638 258.5 115.638 262.767Z" fill="url(#paint8_linear_133_446)"/>
<path opacity="0.3" d="M115.638 262.767C115.638 258.5 124.617 251.518 135.693 251.518C140.807 251.518 145.471 253.008 149.013 255.031C149.261 255.55 149.377 256.067 149.33 256.557C149.1 258.958 145.184 260.434 142.937 260.92C137.277 262.146 134.513 258.762 129.846 258.891C126.961 258.97 122.963 260.42 118.221 266.558C116.579 265.438 115.638 264.145 115.638 262.767Z" fill="#EBEFF2"/>
<path d="M134.594 256.866C135.395 257.065 136.143 257.057 136.847 256.879C137.484 256.717 137.922 256.126 137.922 255.468V236.227H133.463V255.441C133.463 256.12 133.936 256.702 134.594 256.866Z" fill="url(#paint9_linear_133_446)"/>
<path d="M159.255 230.605L152.443 226.298C152.16 224.689 153.214 182.385 140.177 177.101C134.876 174.951 121.023 177.549 117.892 177.689C111.642 177.968 107.184 178.167 105.039 181.149C102.286 184.977 110.785 211.581 109.829 222.532C109.439 226.998 108.448 228.981 109.683 231.939C111.162 235.483 114.594 237.448 117.262 238.553C120.451 240.405 126.004 243.044 133.338 243.687C145.692 244.77 154.915 239.47 158.087 237.443C159.497 236.998 160.557 235.825 160.857 234.377C161.161 232.909 160.523 231.406 159.255 230.605Z" fill="url(#paint10_linear_133_446)"/>
<path d="M116.519 178.588C111.896 178.725 109.023 178.671 107.434 180.735C105.767 182.902 111.334 207.881 111.646 215.595C111.931 222.627 110.691 225.408 112.964 229.305C112.964 229.305 114.118 231.286 115.941 232.773C122.384 238.03 139.005 237.966 146.001 226.992C151.582 218.236 145.374 182.198 138.816 177.928C135.604 175.835 134.866 178.045 116.519 178.588Z" fill="url(#paint11_linear_133_446)"/>
<path d="M159.751 226.737L152.938 222.431C152.938 222.431 134.691 216.431 117.808 224.89C115.917 225.837 114.741 227.793 114.741 229.908C114.741 231.53 115.715 232.994 117.212 233.62C120.158 235.631 125.908 238.951 133.834 239.82C146.435 241.201 155.811 235.431 158.582 233.575C159.993 233.131 161.053 231.958 161.352 230.51C161.656 229.041 161.018 227.538 159.751 226.737Z" fill="url(#paint12_linear_133_446)"/>
<path d="M162.42 214.81L161.925 216.273C161.675 217.013 162.219 217.781 163 217.791L170.288 217.882C170.739 217.887 170.963 217.342 170.641 217.027C169.705 216.112 167.686 214.714 163.705 214.045C163.147 213.951 162.601 214.274 162.42 214.81Z" fill="url(#paint13_linear_133_446)"/>
<path d="M164.394 211.473L163.24 214.517C163.24 214.517 163.616 215.148 165.232 214.991L166.849 212.168L164.394 211.473Z" fill="url(#paint14_linear_133_446)"/>
<path d="M153.849 165.885C160.861 160.617 170.639 165.83 173.968 167.606C176.735 169.081 181.721 171.74 183.498 177.136C184.488 180.14 184.345 183.575 181.513 190.504C179.246 196.052 175.002 204.459 166.849 213.476C165.604 213.143 164.359 212.81 163.114 212.477C163.58 200.899 166.591 193.457 169.338 188.743C170.815 186.209 173.433 182.376 172.115 180.577C171.252 179.4 169 179.295 164.835 180.312C161.125 181.219 156.092 182.4 149.216 183.886C147.227 176.727 149.056 169.486 153.849 165.885Z" fill="url(#paint15_linear_133_446)"/>
<path opacity="0.3" d="M168.144 199.064C170.801 195.012 174.596 192.778 176.439 186.357C176.869 184.858 178.934 177.664 175.733 174.885C172.312 171.916 166.502 177.136 160.732 174.709C157.215 173.23 155.201 169.535 154.001 165.775C153.95 165.812 153.899 165.847 153.849 165.885C149.056 169.486 147.227 176.727 149.216 183.886C156.092 182.4 161.125 181.219 164.835 180.312C169 179.295 171.252 179.399 172.115 180.577C173.433 182.376 170.815 186.209 169.338 188.743C166.591 193.456 163.58 200.899 163.114 212.476C163.708 212.635 164.301 212.794 164.895 212.953C164.603 206.3 166.238 201.971 168.144 199.064Z" fill="url(#paint16_linear_133_446)"/>
<path d="M114.724 99.2917C114.724 99.2917 114.704 99.234 114.669 99.128C114.437 98.4359 113.559 95.684 113.448 93.4781C113.351 91.5309 112.938 93.9095 112.75 95.1323C112.704 95.4325 112.407 95.3665 112.109 95.4256C111.474 95.5513 110.895 95.1609 110.085 94.7019C109.146 94.1693 108.093 93.1314 107.699 93.0938C106.746 93.0029 106.996 94.9126 108.298 95.7124C112.122 98.0626 113.663 100.289 113.663 100.289L114.704 99.2341L114.724 99.2917Z" fill="url(#paint17_linear_133_446)"/>
<path d="M126.801 231.853L126.307 233.316C126.057 234.056 126.601 234.824 127.381 234.834L134.669 234.925C135.12 234.93 135.344 234.384 135.022 234.069C134.087 233.155 132.067 231.757 128.086 231.087C127.528 230.993 126.983 231.317 126.801 231.853Z" fill="url(#paint18_linear_133_446)"/>
<path d="M127.736 228.726L127.352 231.958C127.352 231.958 127.869 232.48 129.4 231.937L130.286 228.806L127.736 228.726Z" fill="url(#paint19_linear_133_446)"/>
<path d="M143.35 156.693C141.634 159.856 139.27 164.939 137.966 171.532C136 181.466 138.46 184.624 135.964 193.47C133.837 201.008 131.236 201.607 128.612 209.3C125.901 217.248 125.986 224.499 126.494 229.419C128.143 229.633 129.793 229.847 131.442 230.06C138.26 217.891 143.124 207.745 146.328 200.67C154.435 182.767 152.873 182.404 158.614 172.415C163.268 164.317 166.661 160.441 165.144 157.59C162.948 153.462 152.241 154.831 143.35 156.693Z" fill="url(#paint20_linear_133_446)"/>
<path d="M199.567 98.8454C199.567 98.8454 202.061 95.7326 202.277 94.6736C202.492 93.6147 202.972 91.6492 203.659 91.573C204.345 91.4969 207.277 91.4877 207.731 92.3526C208.184 93.2176 205.995 95.4015 204.674 95.8648C203.353 96.3281 201.169 99.8917 201.169 99.8917L199.567 98.8454Z" fill="url(#paint21_linear_133_446)"/>
<path d="M204.594 96.5013V89.1806C204.594 89.1806 207.096 88.0555 208.964 89.1806L207.422 96.7253C207.422 96.7253 206.263 96.9916 204.594 96.5013Z" fill="url(#paint22_linear_133_446)"/>
<path d="M203.478 92.7391C203.478 92.7391 204.763 91.9501 206.019 91.5409C207.275 91.1318 205.868 92.6586 205.404 93.1366C204.941 93.6146 203.679 94.6736 203.679 94.6736L203.478 92.7391Z" fill="url(#paint23_linear_133_446)"/>
<path d="M115.892 97.8081C119.799 102.355 127.629 110.142 139.973 114.743C144.952 116.599 160.938 122.557 178.356 115.242C190.338 110.21 197.069 101.386 199.912 97.0826C200.927 97.5592 201.941 98.0357 202.956 98.5122C203.359 103.575 203.01 110.382 198.985 116.116C193.31 124.202 186.189 121.807 179.846 128.798C170.068 139.578 180.026 152.954 170.527 162.179C164.909 167.634 161.761 162.632 146.966 170.253C141.369 173.136 136.202 176.745 130.288 175.15C129.206 174.858 126.733 174.191 125.523 172.106C123.498 168.615 126.65 163.971 129.941 157.218C135.373 146.075 139.151 138.323 136.847 132.016C134.973 126.884 130.652 127.032 124.244 120.875C117.342 114.244 114.253 106.288 112.723 100.667C113.78 99.7138 114.836 98.7609 115.892 97.8081Z" fill="url(#paint24_linear_133_446)"/>
<path opacity="0.3" d="M137.701 164.429C138.566 149.79 153.116 140.451 149.878 134.912C148.036 131.761 142.872 134.007 138.709 129.273C135.569 125.701 137.535 123.315 135.053 118.896C130.742 111.219 121.951 113.33 116.39 105.792C115.43 104.491 114.337 102.59 113.64 99.8403C113.334 100.116 113.029 100.391 112.723 100.667C114.253 106.288 117.343 114.244 124.244 120.875C130.652 127.033 134.973 126.884 136.847 132.016C139.151 138.323 135.373 146.075 129.941 157.218C126.65 163.971 123.498 168.615 125.523 172.106C126.733 174.191 129.206 174.858 130.289 175.15C133.39 175.987 136.286 175.391 139.147 174.22C138.17 171.428 137.484 168.102 137.701 164.429Z" fill="url(#paint25_linear_133_446)"/>
<path d="M159.174 110.814C159.174 110.814 157.432 117.993 154.43 118.007C151.428 118.022 151.428 118.022 151.428 118.022L160.429 123.145L165.344 118.907L161.595 117.727L161.804 112.537L159.174 110.814Z" fill="url(#paint26_linear_133_446)"/>
<path d="M162.89 105.87C162.89 105.87 163.47 106.621 163.747 108.815C164.024 111.01 163.053 115.31 162.617 115.599C162.18 115.888 159.498 115.869 158.349 112.536L156.443 109.084L162.89 105.87Z" fill="url(#paint27_linear_133_446)"/>
<path d="M159.19 111.89C159.543 111.367 158.243 110.509 158.579 109.488C158.787 108.854 159.441 108.725 161.796 107.613C163.902 106.619 164.228 106.322 164.258 105.972C164.334 105.101 162.545 104.339 162.655 104.125C162.79 103.863 165.29 105.296 165.845 104.684C166.228 104.261 165.729 102.811 164.717 102.006C164.121 101.532 163.271 101.222 158.274 101.918C154.818 102.399 154.204 102.69 153.654 103.204C152.655 104.14 151.822 105.861 152.386 106.939C153.039 108.184 155.204 107.889 155.525 109.099C155.689 109.717 155.175 109.985 155.346 110.603C155.72 111.953 158.713 112.597 159.19 111.89Z" fill="url(#paint28_linear_133_446)"/>
<path d="M159.012 112.536L158.039 110.622C158.039 110.622 156.467 110.029 156.637 110.814C156.808 111.598 157.809 112.392 159.012 112.536Z" fill="url(#paint29_linear_133_446)"/>
<path d="M162.577 112.548C164.578 112.291 166.582 111.97 168.556 111.552C169.542 111.339 170.525 111.103 171.473 110.789C172.417 110.471 173.348 110.077 174.168 109.537C174.572 109.263 174.95 108.947 175.215 108.567C175.336 108.374 175.445 108.171 175.473 107.956C175.503 107.85 175.488 107.743 175.49 107.636C175.485 107.582 175.467 107.53 175.458 107.477C175.449 107.424 175.436 107.371 175.41 107.321L175.346 107.168C175.32 107.118 175.286 107.071 175.257 107.023C175.197 106.923 175.132 106.836 175.052 106.761C174.895 106.607 174.699 106.489 174.482 106.417C174.049 106.271 173.552 106.277 173.108 106.42C172.666 106.557 172.259 106.861 172.147 107.275C172.035 107.684 172.245 108.17 172.544 108.509C172.697 108.674 172.888 108.79 173.099 108.823C173.309 108.852 173.533 108.802 173.725 108.689C173.916 108.577 174.083 108.405 174.16 108.211C174.238 108.015 174.197 107.83 174.024 107.718C173.956 107.674 173.936 107.583 173.98 107.515C174.024 107.447 174.115 107.427 174.183 107.471L174.183 107.471L174.187 107.474C174.313 107.556 174.431 107.689 174.474 107.852C174.519 108.014 174.496 108.18 174.444 108.319C174.334 108.6 174.127 108.811 173.886 108.96C173.643 109.107 173.347 109.182 173.053 109.145C172.757 109.105 172.492 108.943 172.299 108.739C172.104 108.531 171.968 108.298 171.865 108.037C171.767 107.776 171.729 107.474 171.801 107.185C171.876 106.898 172.049 106.645 172.265 106.464C172.479 106.277 172.729 106.147 172.989 106.061C173.508 105.887 174.076 105.868 174.609 106.038C174.875 106.122 175.128 106.267 175.337 106.465C175.443 106.562 175.533 106.679 175.605 106.796C175.642 106.855 175.683 106.912 175.717 106.973L175.803 107.17C175.836 107.234 175.855 107.303 175.869 107.375C175.884 107.447 175.906 107.517 175.913 107.589C175.918 107.735 175.933 107.884 175.899 108.026C175.861 108.319 175.728 108.576 175.583 108.812C175.272 109.271 174.858 109.619 174.429 109.92C172.679 111.088 170.653 111.625 168.675 112.088C166.682 112.538 164.679 112.888 162.657 113.177C162.483 113.201 162.323 113.081 162.298 112.907C162.273 112.734 162.394 112.573 162.567 112.549C162.568 112.549 162.569 112.548 162.57 112.548L162.577 112.548Z" fill="url(#paint30_linear_133_446)"/>
<path d="M163.827 112.059L162.187 112.505C162.118 112.523 162.07 112.586 162.07 112.658V113.086C162.07 113.174 162.141 113.245 162.229 113.245H163.669C163.743 113.245 163.808 113.194 163.824 113.122L164.024 112.248C164.051 112.131 163.943 112.027 163.827 112.059Z" fill="url(#paint31_linear_133_446)"/>
<path d="M159.388 101.866L154.56 96.3492C154.389 96.1532 154.067 96.2937 154.094 96.5526L154.852 103.801C154.924 104.485 155.567 104.969 156.242 104.833C157.095 104.661 158.237 104.308 159.202 103.588C159.753 103.177 159.842 102.384 159.388 101.866Z" fill="url(#paint32_linear_133_446)"/>
<path d="M286.66 265.337C286.562 266.189 286.147 266.875 285.602 267.09C284.239 267.626 282.476 267.829 280.415 267.831C278.322 267.834 276.535 267.621 275.162 267.077C274.633 266.867 274.227 266.215 274.115 265.394L270.46 238.76H289.731L286.66 265.337Z" fill="url(#paint33_linear_133_446)"/>
<path d="M289.731 238.76C289.731 239.578 285.417 240.241 280.096 240.241C274.774 240.241 270.46 239.578 270.46 238.76C270.46 237.941 274.774 237.278 280.096 237.278C285.417 237.278 289.731 237.941 289.731 238.76Z" fill="url(#paint34_linear_133_446)"/>
<path d="M280.892 238.657C281.593 238.657 282.294 238.657 282.995 238.657C297.439 228.374 300.076 221.021 299.472 216.032C298.937 211.622 295.991 210.05 291.604 199.1C288.99 192.573 287.682 189.309 287.784 185.765C288.007 178.018 292.914 177.008 295.576 166.885C296.637 162.85 298.394 156.165 295.276 149.654C291.931 142.668 284.551 137.828 282.7 139.167C281.472 140.055 282.685 143.67 283.888 147.256C287.075 156.755 291.186 158.934 291.604 164.488C291.863 167.918 290.463 169.325 287.335 175.875C281.001 189.14 277.577 196.31 278.944 203.296C280.813 212.85 290.037 213.857 290.631 222.175C291.114 228.941 285.481 234.851 280.892 238.657Z" fill="url(#paint35_linear_133_446)"/>
<path d="M270.553 136.318C268.548 136.053 264.179 144.559 264.26 153.699C264.338 162.579 268.543 163.876 269.804 173.028C271.404 184.653 265.066 185.786 266.058 197.152C266.965 207.55 272.502 209.266 275.647 223.524C277.034 229.807 277.218 235.182 277.146 238.807C277.845 238.807 278.544 238.807 279.244 238.807C283.527 229.917 284.607 222.531 284.788 217.38C285.248 204.22 279.992 201.033 281.791 188.162C282.986 179.607 285.803 177.472 284.638 170.331C283.919 165.929 282.102 162.17 279.094 155.947C276.221 150.004 274.85 148.722 273.1 143.51C271.471 138.659 271.544 136.45 270.553 136.318Z" fill="url(#paint36_linear_133_446)"/>
<path d="M274.898 238.507C275.158 235.3 275.013 230.744 272.651 226.37C268.675 219.008 262.608 219.922 257.667 213.335C252.47 206.407 251.633 195.335 254.97 187.413C258.177 179.798 263.935 178.109 263.96 171.23C263.981 165.667 260.146 161.661 260.664 161.341C261.197 161.012 265.539 165.081 267.276 171.079C267.955 173.424 268.234 176.059 267.276 183.217C265.829 194.024 264.199 195.432 264.26 199.4C264.387 207.75 272.61 208.776 276.846 218.129C278.768 222.372 280.315 228.946 278.045 238.807C276.996 238.707 275.947 238.607 274.898 238.507Z" fill="url(#paint37_linear_133_446)"/>
<path d="M197.167 273.519C197.158 273.519 197.148 273.519 197.138 273.518C196.943 273.503 196.793 273.341 196.793 273.145V215.222C196.793 215.015 196.96 214.848 197.167 214.848C197.373 214.848 197.54 215.015 197.54 215.222V268.292L205.576 216.419C205.607 216.215 205.798 216.075 206.002 216.107C206.206 216.138 206.346 216.329 206.315 216.533L197.536 273.203C197.508 273.386 197.35 273.519 197.167 273.519Z" fill="#B7C0CE"/>
<path opacity="0.81" d="M99.2815 222.515L195.584 215.1L272.112 221.01L175.214 229.165L99.2815 222.515Z" fill="white"/>
<path d="M175.214 229.165L99.2815 222.515V225.727L175.214 232.377L272.112 224.222V221.01L175.214 229.165Z" fill="#B7C0CE"/>
<path d="M174.559 293.284C174.374 293.284 174.214 293.147 174.189 292.961L165.841 231.33C165.814 231.125 165.957 230.937 166.161 230.909C166.365 230.881 166.554 231.025 166.582 231.229L174.186 287.368V231.28C174.186 231.073 174.353 230.906 174.559 230.906C174.766 230.906 174.933 231.073 174.933 231.28V292.911C174.933 293.107 174.781 293.27 174.585 293.283C174.576 293.284 174.567 293.284 174.559 293.284Z" fill="#B7C0CE"/>
<path d="M271.054 281.955C270.868 281.955 270.709 281.818 270.684 281.632L262.947 225.013C262.919 224.808 263.062 224.62 263.266 224.592C263.472 224.563 263.659 224.707 263.687 224.912L270.68 276.087V222.72C270.68 222.514 270.847 222.347 271.054 222.347C271.26 222.347 271.427 222.514 271.427 222.72V281.581C271.427 281.778 271.275 281.941 271.079 281.954C271.071 281.955 271.062 281.955 271.054 281.955Z" fill="#B7C0CE"/>
<path d="M100.194 281.955C100.184 281.955 100.175 281.955 100.166 281.954C99.971 281.94 99.8198 281.777 99.8198 281.581V225.727C99.8198 225.521 99.987 225.354 100.193 225.354C100.4 225.354 100.567 225.521 100.567 225.727V276.473L108.039 225.673C108.069 225.469 108.259 225.326 108.463 225.357C108.667 225.387 108.808 225.577 108.778 225.781L100.563 281.636C100.536 281.82 100.377 281.955 100.194 281.955Z" fill="#B7C0CE"/>
<path d="M176.963 213.626L187.302 181.279C187.465 180.768 188.046 180.399 188.705 180.387L233.972 179.556C234.358 179.549 235.027 179.831 235.262 180.075C235.496 180.318 235.816 180.362 235.728 180.677L227.288 209.142C227.148 209.617 226.644 209.983 226.058 210.037L177.793 214.46L176.963 213.626Z" fill="#D8DEE8"/>
<path d="M177.793 214.46L188.277 181.894C188.441 181.385 189.02 181.017 189.677 181.005L234.848 180.145C235.233 180.138 235.592 180.275 235.827 180.518C236.061 180.761 236.146 181.084 236.058 181.399L228.166 209.67C228.03 210.157 227.512 210.534 226.912 210.581L177.793 214.46Z" fill="#BFC8D6"/>
<path opacity="0.3" d="M177.793 214.46L226.912 210.581C227.512 210.534 228.03 210.157 228.166 209.67L230.548 201.136C215.578 206.369 197.791 205.795 180.155 207.122L177.793 214.46Z" fill="#BFC8D6"/>
<path d="M206.662 219.909L204.799 220.552C204.799 220.552 195.003 218.712 194.577 218.412C194.509 218.364 194.274 217.909 194.712 217.833C197.024 217.436 205.464 217.143 205.464 217.143L206.236 217.186L206.662 219.909Z" fill="#D8DEE8"/>
<path d="M206.796 219.336L204.933 219.978C204.933 219.978 195.139 218.134 194.712 217.833C194.285 217.532 205.597 216.571 205.597 216.571L206.37 216.617L206.796 219.336Z" fill="#D8DEE8"/>
<path d="M214.895 196.838C214.895 196.838 219.649 217.289 219.789 218.486C219.919 219.59 208.233 220.673 205.434 220.769C205.201 220.777 204.893 220.616 204.799 220.552C204.024 220.462 207.649 197.133 207.649 197.133L207.916 197.143L214.895 196.838Z" fill="#D8DEE8"/>
<path d="M214.895 196.838C214.895 196.838 220.3 217.496 220.44 218.692C220.58 219.887 206.688 220.8 205.472 220.759C204.699 220.67 207.915 197.143 207.915 197.143L214.895 196.838Z" fill="#BFC8D6"/>
<path d="M207.924 162.668C208.388 162.295 209.003 161.686 209.356 160.78C209.734 159.808 209.468 159.376 209.942 158.769C210.544 158 211.774 157.669 212.618 158.044C212.796 158.124 213.012 158.234 213.149 158.465C213.524 159.098 212.691 160.195 212.026 160.78C211.526 161.219 211.319 161.187 210.789 161.561C210.271 161.926 209.62 162.556 209.096 163.71L207.924 162.668Z" fill="url(#paint38_linear_133_446)"/>
<path d="M235.752 157.352C235.179 157.19 234.375 156.869 233.696 156.172C232.969 155.426 233.046 154.924 232.372 154.55C231.519 154.076 230.257 154.251 229.626 154.927C229.493 155.069 229.337 155.256 229.301 155.521C229.203 156.25 230.398 156.936 231.238 157.214C231.871 157.424 232.048 157.313 232.682 157.451C233.301 157.585 234.147 157.911 235.08 158.769L235.752 157.352Z" fill="url(#paint39_linear_133_446)"/>
<path d="M233.093 158.255C232.723 160.014 234.626 161.58 235.998 163.117C238.751 166.2 241.632 171.701 240.574 176.422C239.996 179.001 238.144 181.79 235.528 183.112C232.713 184.534 231.027 183.24 228.099 184.929C227.883 185.054 224.179 187.249 224.072 190.212C223.939 193.867 229.313 197.756 233.913 198.053C242.327 198.598 252.464 187.409 251.992 176.307C251.477 164.221 238.491 154.627 234.754 156.254C234.166 156.51 233.301 157.265 233.093 158.255Z" fill="url(#paint40_linear_133_446)"/>
<path d="M229.348 283.406L229.047 286.468L230.473 286.21L231.432 283.333L229.348 283.406Z" fill="url(#paint41_linear_133_446)"/>
<path d="M238.038 226.827C237.89 232.264 237.212 236.917 236.408 240.716C235.544 244.803 235.041 245.509 234.771 248.335C234.184 254.484 236.166 255.364 236.53 262.314C236.932 269.989 234.891 276.089 234.089 278.415C233.387 280.449 232.653 282.092 232.101 283.233C231.397 283.847 230.322 283.611 229.187 283.38C228.769 276.419 228.248 269.868 227.83 262.907C226.483 252.435 225.135 241.964 223.787 231.492C228.538 229.937 233.288 228.382 238.038 226.827Z" fill="url(#paint42_linear_133_446)"/>
<path opacity="0.3" d="M229.187 283.38C228.769 276.419 228.248 269.868 227.83 262.907C226.483 252.435 225.135 241.964 223.787 231.492C228.538 229.937 233.288 228.382 238.039 226.827C238.029 227.187 238.011 227.534 237.996 227.887C231.332 233.675 230.027 238.26 230.092 241.388C230.171 245.181 232.245 247.061 231.84 252.56C231.55 256.492 230.368 257.185 230.369 260.734C230.37 265.303 232.331 267.872 233.286 270.512C234.209 273.064 234.537 276.678 232.754 281.819C232.52 282.35 232.299 282.825 232.101 283.233C231.397 283.846 230.322 283.611 229.187 283.38Z" fill="url(#paint43_linear_133_446)"/>
<path d="M229.883 287.513C230.558 286.676 231.178 286.737 231.291 286.17C231.379 285.724 231.096 285.186 230.682 284.988C230.099 284.71 229.411 285.178 229.255 285.284C228.199 286.003 228.514 287.086 227.514 287.58C227.313 287.68 226.993 287.787 226.66 288.113C226.519 288.251 226.169 288.593 226.257 288.822C226.36 289.087 226.997 289.064 227.602 289.042C228.328 289.016 228.691 289.003 229.036 288.778C229.514 288.465 229.362 288.159 229.883 287.513Z" fill="url(#paint44_linear_133_446)"/>
<path d="M228.45 261.317L231.117 262.36L231.894 261.137L229.809 259.736L228.45 261.317Z" fill="url(#paint45_linear_133_446)"/>
<path d="M232.521 263.008C232.365 261.944 232.83 261.53 232.49 261.063C232.222 260.695 231.634 260.538 231.208 260.708C230.608 260.948 230.485 261.771 230.458 261.957C230.27 263.221 231.279 263.724 230.963 264.794C230.9 265.009 230.762 265.318 230.775 265.783C230.781 265.98 230.795 266.47 231.023 266.56C231.287 266.664 231.702 266.181 232.097 265.721C232.571 265.17 232.808 264.895 232.876 264.488C232.97 263.925 232.642 263.829 232.521 263.008Z" fill="url(#paint46_linear_133_446)"/>
<path d="M216.91 221.993C211.942 232.124 210.255 240.572 209.617 246.088C209.206 249.635 209.246 251.829 210.268 254.033C213.926 261.922 226.692 262.443 228.632 262.498C229.27 261.191 229.908 259.884 230.547 258.577C229.372 256.399 227.323 253.374 223.813 251.167C221.114 249.47 220.059 249.833 219.385 248.693C216.681 244.117 231.276 234.205 229.096 227.607C228.341 225.325 225.438 223.01 216.91 221.993Z" fill="url(#paint47_linear_133_446)"/>
<path d="M227.677 185.575C222.308 186.497 218.22 187.457 216.395 190.268C214.468 193.239 217.532 195.474 218.366 201.991C219.642 211.967 213.906 215.694 215.556 225.739C215.825 227.379 216.234 228.838 216.674 230.084C217.448 232.275 218.949 234.119 220.916 235.356C222.391 236.283 224.184 237.216 226.289 237.952C231.733 239.856 234.418 238.749 241.743 239.168C253.723 239.853 255.517 243.327 260.93 241.191C266.4 239.031 270.359 233.196 269.199 230.702C268.504 229.209 266.312 230.141 263.169 228.308C259.117 225.945 259.798 222.721 256.511 219.954C251.789 215.981 247.247 219.993 243.209 216.538C239.124 213.043 238.637 204.543 240.373 199.483C241.507 196.178 241.528 192.584 242.37 189.193C242.44 188.911 242.495 188.462 242.32 187.953C241.65 186.003 238.084 185.629 235.388 185.372C231.276 184.979 228.118 185.499 227.677 185.575Z" fill="url(#paint48_linear_133_446)"/>
<path opacity="0.3" d="M260.301 237.407C258.643 236.302 259.541 233.168 257.084 231.505C254.804 229.961 253.026 231.98 249.665 230.95C245.355 229.628 245.58 225.479 241.45 224.154C238.48 223.202 237.584 225.098 233.3 225.18C229.023 225.262 223.416 223.497 219.866 218.963C218.357 217.037 217.515 214.982 217.056 213.082C215.912 216.776 214.67 220.348 215.556 225.739C215.915 227.921 216.52 229.785 217.118 231.25C217.675 232.617 218.615 233.792 219.827 234.635C221.477 235.783 223.635 237.024 226.289 237.952C231.732 239.857 234.418 238.749 241.743 239.168C253.723 239.853 255.517 243.327 260.93 241.191C264.426 239.811 267.297 236.931 268.617 234.38C263.882 237.824 261.505 238.209 260.301 237.407Z" fill="url(#paint49_linear_133_446)"/>
<path d="M224.575 176.283C224.575 176.283 223.096 179.06 223.003 181.009C222.909 182.958 225.109 182.817 225.109 182.817L225.026 184.046C224.956 185.095 224.274 186.005 223.287 186.368L222.419 186.687C222.419 186.687 228.083 187.9 231.177 185.715L230.285 185.628C229.023 185.504 228.023 184.508 227.894 183.246L227.84 182.72C227.84 182.72 228.823 176.645 224.575 176.283Z" fill="url(#paint50_linear_133_446)"/>
<path d="M210.626 163.221C211.467 164.811 210.07 166.84 209.175 168.696C207.379 172.419 206.127 178.501 208.446 182.748C209.712 185.067 212.262 187.237 215.141 187.786C218.239 188.377 219.503 186.668 222.784 187.484C223.026 187.544 227.191 188.633 228.111 191.451C229.247 194.928 225.154 200.148 220.814 201.703C212.877 204.546 200.047 196.588 197.439 185.786C194.6 174.026 204.437 161.223 208.477 161.756C209.113 161.84 210.153 162.327 210.626 163.221Z" fill="url(#paint51_linear_133_446)"/>
<path d="M225.461 179.045C225.753 179.021 225.995 178.649 226.196 178.76C226.406 178.875 226.383 179.417 226.2 179.797C226.05 180.108 225.805 180.284 225.669 180.366C225.895 180.679 226.183 181.165 226.303 181.802C226.568 183.21 225.82 184.342 225.509 185.005C224.106 187.992 226.288 192.714 228.684 195.099C230.631 197.038 231.539 196.258 232.701 197.842C234.964 200.923 231.841 204.31 233.011 208.458C234.79 214.765 244.749 216.641 245.161 216.714C245.324 216.742 245.433 216.76 245.603 216.787C250.07 217.497 256.841 218.573 261.609 214.906C265.177 212.163 266.813 207.388 266.543 203.183C266.472 202.076 266.137 197.877 262.715 194.45C262.172 193.906 258.956 190.692 254.61 190.653C252.309 190.633 251.845 191.444 250.084 190.942C247.675 190.256 246.19 188.065 245.269 186.706C243.575 184.206 244.264 183.672 243.045 182.442C240.657 180.033 237.855 181.925 235.305 179.799C232.791 177.703 234.307 174.861 231.881 173.047C229.377 171.176 224.588 171.829 223.567 174.057C222.69 175.971 224.563 179.119 225.461 179.045Z" fill="url(#paint52_linear_133_446)"/>
<path d="M233.74 166.763L227.932 172.853C227.191 173.629 227.341 174.885 228.239 175.473C229.139 176.062 230.214 176.449 231.107 176.694C232.073 176.96 233.061 176.355 233.252 175.372L234.815 167.318C234.934 166.7 234.174 166.307 233.74 166.763Z" fill="url(#paint53_linear_133_446)"/>
<path d="M229.251 157.485L228.146 150.894L232.509 151.261L231.746 157.276C231.722 157.476 231.594 157.656 231.394 157.758C230.991 157.964 230.269 158.233 229.624 157.953C229.417 157.863 229.284 157.683 229.251 157.485Z" fill="url(#paint54_linear_133_446)"/>
<path d="M232.509 151.261C232.475 151.568 231.47 151.735 230.266 151.634C229.061 151.532 228.112 151.201 228.147 150.894C228.181 150.587 229.186 150.42 230.39 150.522C231.595 150.623 232.543 150.954 232.509 151.261Z" fill="url(#paint55_linear_133_446)"/>
<path d="M232.24 155.436C232.24 155.436 231.242 155.705 230.722 154.946C230.202 154.187 229.995 155.477 230.679 155.941C231.364 156.405 232.044 156.56 232.044 156.56L232.24 155.436Z" fill="url(#paint56_linear_133_446)"/>
<path d="M124.037 150.085L122.932 143.495L127.294 143.861L126.532 149.876C126.508 150.076 126.38 150.256 126.18 150.359C125.777 150.565 125.055 150.834 124.41 150.553C124.203 150.464 124.07 150.283 124.037 150.085Z" fill="url(#paint57_linear_133_446)"/>
<path d="M127.294 143.861C127.26 144.168 126.255 144.335 125.051 144.234C123.846 144.133 122.898 143.802 122.932 143.495C122.966 143.187 123.971 143.021 125.176 143.122C126.38 143.223 127.329 143.554 127.294 143.861Z" fill="url(#paint58_linear_133_446)"/>
<path d="M121.98 154.439C122.623 148.412 123.165 146.761 123.588 146.762C123.904 146.763 124.01 147.689 124.647 147.821C125.68 148.035 126.731 145.868 127.128 146.067C127.394 146.2 127.23 147.325 126.731 148.35C126.119 149.611 125.373 149.956 124.779 150.733C124.171 151.527 123.645 152.874 124.027 155.293L121.98 154.439Z" fill="url(#paint59_linear_133_446)"/>
<path d="M125.528 153.621C124.209 153.393 122.89 153.166 121.571 152.939C116.85 161.69 111.319 167.316 107.554 170.581C103.104 174.44 100.231 176.931 95.51 178.181C88.536 180.026 82.5119 177.86 81.7291 179.818C81.3465 180.776 82.674 181.812 84.7991 184.355C90.9875 191.759 90.4026 195.741 93.8044 196.839C96.6152 197.747 99.4439 195.794 104.242 192.371C108.608 189.257 114.081 185.352 118.705 177.908C124.909 167.923 125.53 158.099 125.528 153.621Z" fill="url(#paint60_linear_133_446)"/>
<path d="M67.4029 180.614C66.7618 180.856 56.9822 184.745 54.9721 194.952C54.8097 195.777 53.2385 204.546 59.1855 210.741C65.8542 217.688 78.6953 217.516 83.7922 211.709C84.9809 210.354 85.608 208.853 85.9592 207.592L84.6162 204.024C82.9776 202.046 80.7464 201.577 79.5548 201.283C76.6172 200.559 74.3994 201.868 72.7171 200.451C71.7862 199.668 71.6013 198.54 71.436 197.532C70.8734 194.1 72.8105 191.987 72.9516 189.87C73.0571 188.288 73.6108 184.821 71.5456 182.561C70.2379 181.129 68.4265 180.739 67.4029 180.614Z" fill="url(#paint61_linear_133_446)"/>
<path d="M63.5923 294.367C63.4782 293.739 61.449 293.17 60.4443 294.011C59.9453 294.429 59.6017 295.276 59.8905 295.659C59.9955 295.798 59.5654 296.043 59.9775 296.048C61.3444 296.064 63.7058 294.991 63.5923 294.367Z" fill="url(#paint62_linear_133_446)"/>
<path d="M61.4654 294.595L59.3784 294.3C60.3453 293.136 60.1662 289.429 60.1662 289.429L62.3857 289.925C62.3857 289.925 62.1328 290.942 61.7026 292.443C61.5553 292.957 61.4896 293.761 61.4654 294.595Z" fill="url(#paint63_linear_133_446)"/>
<path d="M61.6505 294.339C61.6505 294.339 59.1379 293.76 58.8661 294.258C58.5944 294.756 58.3833 296.091 59.9774 296.048C61.5716 296.005 61.792 294.761 61.6505 294.339Z" fill="url(#paint64_linear_133_446)"/>
<path d="M92.2277 296.723C92.0267 296.117 89.9379 295.838 89.0607 296.812C88.6252 297.295 88.4036 298.182 88.7431 298.52C88.8666 298.644 88.475 298.946 88.8836 298.893C90.2393 298.718 92.4273 297.325 92.2277 296.723Z" fill="url(#paint65_linear_133_446)"/>
<path d="M90.1537 297.247H88.046C88.8405 295.959 88.1442 292.314 88.1442 292.314L90.4112 292.494C90.4112 292.494 90.3032 293.537 90.0873 295.083C90.0135 295.612 90.0608 296.418 90.1537 297.247Z" fill="url(#paint66_linear_133_446)"/>
<path d="M95.616 217.543C96.5923 220.767 97.9867 225.971 98.8842 232.5C101.444 251.122 96.003 251.717 97.0191 272.353C97.3434 278.94 91.3123 294.129 90.7807 294.465C90.5234 294.49 90.2443 294.507 89.9467 294.498C89.422 294.482 88.6824 294.401 87.8224 294.143C86.867 293.979 83.4225 284.649 84.2209 279.102C84.7859 275.176 84.6221 270.963 84.2946 262.536C84.2415 261.171 80.7481 235.971 80.7481 235.971C79.6853 245.298 78.4633 253.224 77.4038 259.368C73.9999 279.11 62.932 291.059 62.3547 291.251C62.2406 291.297 61.202 291.674 60.353 291.114C59.975 290.865 59.8465 290.544 59.8465 290.544C59.5504 290.312 59.9337 270.834 63.3096 256.175C68.2096 234.898 66.0759 229.919 67.6283 220.415C68.9716 212.192 95.616 217.543 95.616 217.543Z" fill="url(#paint67_linear_133_446)"/>
<path d="M75.8241 178.953C79.0773 178.857 86.5548 177.709 90.6734 181.415C90.7451 181.479 89.9013 181.93 90.3167 182.417C90.7025 182.869 92.0254 184.451 93.2246 186.589C94.0934 188.138 94.8776 189.944 95.6686 192.635C97.0639 197.38 97.4642 201.421 97.5979 203.182C98.3508 213.083 97.6043 217.651 96.9269 220.758C93.9856 222.268 86.4062 224.972 77.3756 223.629C73.2515 223.015 69.9509 221.643 67.6285 220.418C69.9717 213.323 68.1334 209.526 67.266 206.027C66.0293 201.037 66.0094 201.414 64.9911 197.451C63.3109 190.91 63.0352 184.227 64.1896 182.86C67.3025 179.172 72.9112 179.039 75.8241 178.953Z" fill="url(#paint68_linear_133_446)"/>
<path d="M90.3009 296.967C90.3009 296.967 87.732 296.745 87.5327 297.277C87.3333 297.808 87.3112 299.159 88.8835 298.893C90.456 298.628 90.5002 297.365 90.3009 296.967Z" fill="url(#paint69_linear_133_446)"/>
<path d="M82.659 172.857C83.1939 170.951 82.2587 169.186 82.0526 168.806C81.1895 167.214 80.9685 166.996 80.5567 166.72L79.9842 166.367C79.9842 166.367 79.9511 166.354 79.9162 166.342C79.5488 166.211 78.2969 166.173 78.0433 166.227C77.2331 166.4 76.3703 169.701 76.6165 174.367C76.5829 174.545 76.5505 174.725 76.5192 174.905C76.3916 175.642 76.2903 176.365 76.2119 177.071C76.1369 177.747 75.6876 178.322 75.0517 178.562C70.746 180.188 70.7546 178.89 70.3091 180.288C70.0665 181.05 74.956 182.28 77.3616 182.002C82.7736 182.043 87.176 181.466 86.7029 180.614C86.4928 180.236 82.2995 179.14 81.1203 178.054C80.0404 177.06 80.1284 176.033 80.0396 175.298C80.367 175.128 82.2653 174.261 82.659 172.857Z" fill="url(#paint70_linear_133_446)"/>
<path d="M81.6636 165.042C81.6587 166.487 80.9775 168.031 80.6304 168.28C80.5856 168.312 80.3335 168.511 80.1069 168.852C80.076 168.898 80.0487 168.952 80.0245 169.022C79.7078 169.933 81.1564 171.006 80.8768 171.414C80.6739 171.709 79.6894 171.314 79.5723 171.569C79.462 171.81 80.2803 172.308 80.155 172.596C80.0604 172.813 79.5569 172.614 79.2393 172.948C79.081 173.113 79.1275 173.245 78.9598 173.752C78.865 174.039 78.7323 174.353 78.6295 174.527C78.1298 175.376 76.7147 175.686 76.4424 175.347C76.3667 175.252 76.4318 175.172 76.3543 174.855C76.3543 174.855 76.2825 174.56 76.0777 174.22C75.7851 173.733 75.0784 173.386 74.3653 172.872C73.045 171.921 72.6861 171.111 72.5785 170.837C72.5402 170.74 72.5163 170.666 72.4992 170.613C72.1558 169.547 72.1543 167.982 72.6334 167.019C73.4359 165.407 75.2464 166.172 76.7282 164.575C78.4379 162.731 77.4197 160.212 78.3474 159.933C79.37 159.627 81.6724 162.368 81.6636 165.042Z" fill="#26264F"/>
<path d="M80.357 171.074C80.0027 170.587 79.3801 171.044 79.3765 171.674C79.3728 172.304 79.9832 172.959 80.5754 172.835C81.1675 172.71 80.8339 171.729 80.357 171.074Z" fill="url(#paint71_linear_133_446)"/>
<path d="M68.6646 215.927C68.6611 215.927 68.6577 215.927 68.6542 215.927C68.6028 215.921 68.566 215.875 68.5717 215.824C68.9562 212.362 68.2395 209.848 67.6069 207.63C67.4511 207.084 67.3037 206.567 67.1753 206.049C66.4732 203.217 66.166 202.124 65.8407 200.966C65.6287 200.212 65.4097 199.433 65.0703 198.13C65.0573 198.08 65.0873 198.029 65.1372 198.016C65.1871 198.003 65.2381 198.033 65.2511 198.083C65.5901 199.384 65.8089 200.162 66.0204 200.915C66.3463 202.074 66.6539 203.169 67.3567 206.004C67.4842 206.519 67.631 207.034 67.7865 207.579C68.4237 209.814 69.1461 212.346 68.7573 215.844C68.7521 215.892 68.7115 215.927 68.6646 215.927Z" fill="#9B305E"/>
<path d="M80.0697 170.02L80.8918 171.089C80.8918 171.089 81.7779 172.399 82.2954 171.682C82.718 171.095 82.8275 171.108 82.8535 171.133C82.8584 171.137 82.8597 171.144 82.8608 171.144C82.8682 171.142 82.7989 170.852 82.7365 170.597C82.9553 170.912 83.2569 171.421 83.4395 172.107C83.617 172.773 83.8071 173.486 83.4313 174.171C83.4095 174.21 82.9956 174.939 82.2228 175.116C82.2228 175.116 81.9189 175.185 80.6347 174.959C80.6347 174.959 82.0384 173.941 82.0599 173.699C82.118 173.041 81.2056 172.685 80.528 171.336C80.2668 170.816 80.138 170.345 80.0697 170.02Z" fill="#26264F"/>
<path d="M77.1877 165.197L68.7744 162.512C68.3106 162.364 67.9295 162.898 68.2198 163.288L73.5007 170.397C73.6503 170.598 73.927 170.661 74.146 170.538C75.8335 169.594 77.2301 167.615 77.5323 165.752C77.5717 165.508 77.423 165.272 77.1877 165.197Z" fill="url(#paint72_linear_133_446)"/>
<path d="M163.143 215.734L161.925 216.274C161.675 217.013 162.219 217.781 163 217.791L170.288 217.882C170.739 217.888 170.963 217.342 170.641 217.027C169.705 216.112 168.469 216.999 164.488 216.33C163.93 216.236 163.324 215.198 163.143 215.734Z" fill="url(#paint73_linear_133_446)"/>
</g>
<defs>
<linearGradient id="paint0_linear_133_446" x1="302.416" y1="134.116" x2="284.509" y2="123.05" gradientUnits="userSpaceOnUse">
<stop stop-color="#FF9085"/>
<stop offset="1" stop-color="#FB6FBB"/>
</linearGradient>
<linearGradient id="paint1_linear_133_446" x1="272.455" y1="158.306" x2="263.994" y2="95.1726" gradientUnits="userSpaceOnUse">
<stop stop-color="#FFC444"/>
<stop offset="0.9964" stop-color="#F36F56"/>
</linearGradient>
<linearGradient id="paint2_linear_133_446" x1="226.121" y1="187.105" x2="257.507" y2="115.06" gradientUnits="userSpaceOnUse">
<stop stop-color="#AA80F9"/>
<stop offset="0.9964" stop-color="#6165D7"/>
</linearGradient>
<linearGradient id="paint3_linear_133_446" x1="134.924" y1="78.4457" x2="154.921" y2="44.9966" gradientUnits="userSpaceOnUse">
<stop stop-color="#FFC444"/>
<stop offset="0.9964" stop-color="#F36F56"/>
</linearGradient>
<linearGradient id="paint4_linear_133_446" x1="81.5261" y1="124.109" x2="112.912" y2="52.0639" gradientUnits="userSpaceOnUse">
<stop stop-color="#FF9085"/>
<stop offset="1" stop-color="#FB6FBB"/>
</linearGradient>
<linearGradient id="paint5_linear_133_446" x1="86.2034" y1="83.5329" x2="65.5915" y2="70.7955" gradientUnits="userSpaceOnUse">
<stop stop-color="#AA80F9"/>
<stop offset="0.9964" stop-color="#6165D7"/>
</linearGradient>
<linearGradient id="paint6_linear_133_446" x1="55.7656" y1="114.02" x2="80.0531" y2="-1.31247" gradientUnits="userSpaceOnUse">
<stop stop-color="#FFC444"/>
<stop offset="0.9964" stop-color="#F36F56"/>
</linearGradient>
<linearGradient id="paint7_linear_133_446" x1="179.287" y1="90.8312" x2="294.231" y2="90.8312" gradientUnits="userSpaceOnUse">
<stop stop-color="#FF9085"/>
<stop offset="1" stop-color="#FB6FBB"/>
</linearGradient>
<linearGradient id="paint8_linear_133_446" x1="123.285" y1="243.65" x2="143.535" y2="274.622" gradientUnits="userSpaceOnUse">
<stop offset="0.0036" stop-color="#26264F"/>
<stop offset="1" stop-color="#444B8C"/>
</linearGradient>
<linearGradient id="paint9_linear_133_446" x1="133.463" y1="246.62" x2="137.922" y2="246.62" gradientUnits="userSpaceOnUse">
<stop offset="0.0036" stop-color="#26264F"/>
<stop offset="1" stop-color="#444B8C"/>
</linearGradient>
<linearGradient id="paint10_linear_133_446" x1="103.904" y1="245.94" x2="116.5" y2="229.528" gradientUnits="userSpaceOnUse">
<stop stop-color="#311944"/>
<stop offset="1" stop-color="#A03976"/>
</linearGradient>
<linearGradient id="paint11_linear_133_446" x1="106.961" y1="206.071" x2="141.729" y2="206.827" gradientUnits="userSpaceOnUse">
<stop stop-color="#311944"/>
<stop offset="1" stop-color="#A03976"/>
</linearGradient>
<linearGradient id="paint12_linear_133_446" x1="138.07" y1="228.629" x2="138.23" y2="242.257" gradientUnits="userSpaceOnUse">
<stop stop-color="#311944"/>
<stop offset="1" stop-color="#A03976"/>
</linearGradient>
<linearGradient id="paint13_linear_133_446" x1="170.007" y1="230.183" x2="161.006" y2="198.063" gradientUnits="userSpaceOnUse">
<stop stop-color="#AA80F9"/>
<stop offset="0.9964" stop-color="#6165D7"/>
</linearGradient>
<linearGradient id="paint14_linear_133_446" x1="164.439" y1="219.914" x2="168.322" y2="177.734" gradientUnits="userSpaceOnUse">
<stop stop-color="#FFC444"/>
<stop offset="0.9964" stop-color="#F36F56"/>
</linearGradient>
<linearGradient id="paint15_linear_133_446" x1="187.939" y1="211.726" x2="154.054" y2="170.958" gradientUnits="userSpaceOnUse">
<stop stop-color="#444B8C"/>
<stop offset="0.9964" stop-color="#26264F"/>
</linearGradient>
<linearGradient id="paint16_linear_133_446" x1="148.423" y1="189.364" x2="177.491" y2="189.364" gradientUnits="userSpaceOnUse">
<stop stop-color="#444B8C"/>
<stop offset="0.9964" stop-color="#26264F"/>
</linearGradient>
<linearGradient id="paint17_linear_133_446" x1="111.219" y1="92.6499" x2="109.15" y2="119.686" gradientUnits="userSpaceOnUse">
<stop stop-color="#AB316D"/>
<stop offset="1" stop-color="#792D3D"/>
</linearGradient>
<linearGradient id="paint18_linear_133_446" x1="132.554" y1="240.679" x2="123.553" y2="208.558" gradientUnits="userSpaceOnUse">
<stop stop-color="#AA80F9"/>
<stop offset="0.9964" stop-color="#6165D7"/>
</linearGradient>
<linearGradient id="paint19_linear_133_446" x1="130.074" y1="216.75" x2="133.956" y2="174.571" gradientUnits="userSpaceOnUse">
<stop stop-color="#FFC444"/>
<stop offset="0.9964" stop-color="#F36F56"/>
</linearGradient>
<linearGradient id="paint20_linear_133_446" x1="126.214" y1="192.476" x2="165.51" y2="192.476" gradientUnits="userSpaceOnUse">
<stop stop-color="#444B8C"/>
<stop offset="0.9964" stop-color="#26264F"/>
</linearGradient>
<linearGradient id="paint21_linear_133_446" x1="203.49" y1="98.2183" x2="201.019" y2="130.515" gradientUnits="userSpaceOnUse">
<stop stop-color="#AB316D"/>
<stop offset="1" stop-color="#792D3D"/>
</linearGradient>
<linearGradient id="paint22_linear_133_446" x1="207.327" y1="83.8782" x2="205.209" y2="104.35" gradientUnits="userSpaceOnUse">
<stop stop-color="#AA80F9"/>
<stop offset="0.9964" stop-color="#6165D7"/>
</linearGradient>
<linearGradient id="paint23_linear_133_446" x1="204.535" y1="98.2982" x2="202.064" y2="130.595" gradientUnits="userSpaceOnUse">
<stop stop-color="#AB316D"/>
<stop offset="1" stop-color="#792D3D"/>
</linearGradient>
<linearGradient id="paint24_linear_133_446" x1="112.723" y1="136.312" x2="203.084" y2="136.312" gradientUnits="userSpaceOnUse">
<stop stop-color="#FFC444"/>
<stop offset="0.9964" stop-color="#F36F56"/>
</linearGradient>
<linearGradient id="paint25_linear_133_446" x1="112.723" y1="137.691" x2="150.347" y2="137.691" gradientUnits="userSpaceOnUse">
<stop stop-color="#FFC444"/>
<stop offset="0.9964" stop-color="#F36F56"/>
</linearGradient>
<linearGradient id="paint26_linear_133_446" x1="159.615" y1="126.086" x2="156.527" y2="106.938" gradientUnits="userSpaceOnUse">
<stop stop-color="#AB316D"/>
<stop offset="1" stop-color="#792D3D"/>
</linearGradient>
<linearGradient id="paint27_linear_133_446" x1="157.161" y1="105.808" x2="145.16" y2="92.7487" gradientUnits="userSpaceOnUse">
<stop stop-color="#AB316D"/>
<stop offset="1" stop-color="#792D3D"/>
</linearGradient>
<linearGradient id="paint28_linear_133_446" x1="165.024" y1="94.9998" x2="144.552" y2="129.061" gradientUnits="userSpaceOnUse">
<stop stop-color="#444B8C"/>
<stop offset="0.9964" stop-color="#26264F"/>
</linearGradient>
<linearGradient id="paint29_linear_133_446" x1="154.736" y1="108.037" x2="142.735" y2="94.9768" gradientUnits="userSpaceOnUse">
<stop stop-color="#AB316D"/>
<stop offset="1" stop-color="#792D3D"/>
</linearGradient>
<linearGradient id="paint30_linear_133_446" x1="162.295" y1="109.55" x2="175.921" y2="109.55" gradientUnits="userSpaceOnUse">
<stop offset="0.0036" stop-color="#E38DDD"/>
<stop offset="1" stop-color="#9571F6"/>
</linearGradient>
<linearGradient id="paint31_linear_133_446" x1="162.07" y1="112.649" x2="164.028" y2="112.649" gradientUnits="userSpaceOnUse">
<stop stop-color="#AA80F9"/>
<stop offset="0.9964" stop-color="#6165D7"/>
</linearGradient>
<linearGradient id="paint32_linear_133_446" x1="157.707" y1="91.6656" x2="155.534" y2="112.673" gradientUnits="userSpaceOnUse">
<stop stop-color="#FF9085"/>
<stop offset="1" stop-color="#FB6FBB"/>
</linearGradient>
<linearGradient id="paint33_linear_133_446" x1="272.962" y1="249.736" x2="297.564" y2="258.005" gradientUnits="userSpaceOnUse">
<stop stop-color="#AB316D"/>
<stop offset="1" stop-color="#792D3D"/>
</linearGradient>
<linearGradient id="paint34_linear_133_446" x1="284.054" y1="230.483" x2="274.165" y2="251.161" gradientUnits="userSpaceOnUse">
<stop stop-color="#FFC444"/>
<stop offset="0.9964" stop-color="#F36F56"/>
</linearGradient>
<linearGradient id="paint35_linear_133_446" x1="301.796" y1="142.793" x2="283.816" y2="203.327" gradientUnits="userSpaceOnUse">
<stop stop-color="#FF9085"/>
<stop offset="1" stop-color="#FB6FBB"/>
</linearGradient>
<linearGradient id="paint36_linear_133_446" x1="278.478" y1="137.678" x2="269.788" y2="241.964" gradientUnits="userSpaceOnUse">
<stop offset="0.0036" stop-color="#E38DDD"/>
<stop offset="1" stop-color="#9571F6"/>
</linearGradient>
<linearGradient id="paint37_linear_133_446" x1="252.981" y1="200.065" x2="279.173" y2="200.065" gradientUnits="userSpaceOnUse">
<stop stop-color="#AA80F9"/>
<stop offset="0.9964" stop-color="#6165D7"/>
</linearGradient>
<linearGradient id="paint38_linear_133_446" x1="210.366" y1="159.449" x2="211.756" y2="167.55" gradientUnits="userSpaceOnUse">
<stop stop-color="#FFC444"/>
<stop offset="0.9964" stop-color="#F36F56"/>
</linearGradient>
<linearGradient id="paint39_linear_133_446" x1="231.56" y1="154.866" x2="235.035" y2="161.021" gradientUnits="userSpaceOnUse">
<stop stop-color="#FFC444"/>
<stop offset="0.9964" stop-color="#F36F56"/>
</linearGradient>
<linearGradient id="paint40_linear_133_446" x1="236.184" y1="166.462" x2="243.243" y2="230.632" gradientUnits="userSpaceOnUse">
<stop stop-color="#FF9085"/>
<stop offset="1" stop-color="#FB6FBB"/>
</linearGradient>
<linearGradient id="paint41_linear_133_446" x1="230.427" y1="290.238" x2="229.374" y2="260.339" gradientUnits="userSpaceOnUse">
<stop stop-color="#FFC444"/>
<stop offset="0.9964" stop-color="#F36F56"/>
</linearGradient>
<linearGradient id="paint42_linear_133_446" x1="231.195" y1="232.695" x2="235.557" y2="287.362" gradientUnits="userSpaceOnUse">
<stop stop-color="#311944"/>
<stop offset="1" stop-color="#893976"/>
</linearGradient>
<linearGradient id="paint43_linear_133_446" x1="231.195" y1="232.695" x2="235.557" y2="287.362" gradientUnits="userSpaceOnUse">
<stop stop-color="#311944"/>
<stop offset="1" stop-color="#893976"/>
</linearGradient>
<linearGradient id="paint44_linear_133_446" x1="227.961" y1="290.48" x2="232.382" y2="273.81" gradientUnits="userSpaceOnUse">
<stop stop-color="#FF9085"/>
<stop offset="1" stop-color="#FB6FBB"/>
</linearGradient>
<linearGradient id="paint45_linear_133_446" x1="233.839" y1="264.381" x2="213.738" y2="247.091" gradientUnits="userSpaceOnUse">
<stop stop-color="#FFC444"/>
<stop offset="0.9964" stop-color="#F36F56"/>
</linearGradient>
<linearGradient id="paint46_linear_133_446" x1="233.397" y1="266.433" x2="224.149" y2="251.876" gradientUnits="userSpaceOnUse">
<stop stop-color="#FF9085"/>
<stop offset="1" stop-color="#FB6FBB"/>
</linearGradient>
<linearGradient id="paint47_linear_133_446" x1="251.569" y1="243.557" x2="200.504" y2="241.236" gradientUnits="userSpaceOnUse">
<stop stop-color="#311944"/>
<stop offset="1" stop-color="#893976"/>
</linearGradient>
<linearGradient id="paint48_linear_133_446" x1="231.279" y1="163.3" x2="243.978" y2="237.342" gradientUnits="userSpaceOnUse">
<stop stop-color="#FF9085"/>
<stop offset="1" stop-color="#FB6FBB"/>
</linearGradient>
<linearGradient id="paint49_linear_133_446" x1="211.256" y1="192.541" x2="246.04" y2="237.115" gradientUnits="userSpaceOnUse">
<stop stop-color="#FF9085"/>
<stop offset="1" stop-color="#FB6FBB"/>
</linearGradient>
<linearGradient id="paint50_linear_133_446" x1="223.408" y1="180.194" x2="229.44" y2="189.225" gradientUnits="userSpaceOnUse">
<stop stop-color="#FFC444"/>
<stop offset="0.9964" stop-color="#F36F56"/>
</linearGradient>
<linearGradient id="paint51_linear_133_446" x1="209.919" y1="171.963" x2="220.831" y2="235.591" gradientUnits="userSpaceOnUse">
<stop stop-color="#FF9085"/>
<stop offset="1" stop-color="#FB6FBB"/>
</linearGradient>
<linearGradient id="paint52_linear_133_446" x1="256.465" y1="217.744" x2="231.657" y2="169.26" gradientUnits="userSpaceOnUse">
<stop stop-color="#444B8C"/>
<stop offset="0.9964" stop-color="#26264F"/>
</linearGradient>
<linearGradient id="paint53_linear_133_446" x1="227.459" y1="171.661" x2="234.827" y2="171.661" gradientUnits="userSpaceOnUse">
<stop offset="0.0036" stop-color="#E38DDD"/>
<stop offset="1" stop-color="#9571F6"/>
</linearGradient>
<linearGradient id="paint54_linear_133_446" x1="228.146" y1="154.484" x2="232.508" y2="154.484" gradientUnits="userSpaceOnUse">
<stop offset="0.0036" stop-color="#E38DDD"/>
<stop offset="1" stop-color="#9571F6"/>
</linearGradient>
<linearGradient id="paint55_linear_133_446" x1="231.419" y1="148.169" x2="230.661" y2="150.19" gradientUnits="userSpaceOnUse">
<stop offset="0.0036" stop-color="#E38DDD"/>
<stop offset="1" stop-color="#9571F6"/>
</linearGradient>
<linearGradient id="paint56_linear_133_446" x1="231.158" y1="154.899" x2="232.575" y2="161.823" gradientUnits="userSpaceOnUse">
<stop stop-color="#FFC444"/>
<stop offset="0.9964" stop-color="#F36F56"/>
</linearGradient>
<linearGradient id="paint57_linear_133_446" x1="122.932" y1="147.084" x2="127.294" y2="147.084" gradientUnits="userSpaceOnUse">
<stop offset="0.0036" stop-color="#E38DDD"/>
<stop offset="1" stop-color="#9571F6"/>
</linearGradient>
<linearGradient id="paint58_linear_133_446" x1="126.204" y1="140.769" x2="125.446" y2="142.791" gradientUnits="userSpaceOnUse">
<stop offset="0.0036" stop-color="#E38DDD"/>
<stop offset="1" stop-color="#9571F6"/>
</linearGradient>
<linearGradient id="paint59_linear_133_446" x1="125.559" y1="146.778" x2="120.826" y2="157.672" gradientUnits="userSpaceOnUse">
<stop stop-color="#FFC444"/>
<stop offset="0.9964" stop-color="#F36F56"/>
</linearGradient>
<linearGradient id="paint60_linear_133_446" x1="110.943" y1="154.77" x2="85.5016" y2="213.325" gradientUnits="userSpaceOnUse">
<stop offset="0.0036" stop-color="#E38DDD"/>
<stop offset="1" stop-color="#9571F6"/>
</linearGradient>
<linearGradient id="paint61_linear_133_446" x1="72.7871" y1="214.258" x2="64.3374" y2="180.459" gradientUnits="userSpaceOnUse">
<stop offset="0.0036" stop-color="#E38DDD"/>
<stop offset="1" stop-color="#9571F6"/>
</linearGradient>
<linearGradient id="paint62_linear_133_446" x1="64.7193" y1="292.553" x2="60.2513" y2="295.523" gradientUnits="userSpaceOnUse">
<stop stop-color="#444B8C"/>
<stop offset="0.9964" stop-color="#26264F"/>
</linearGradient>
<linearGradient id="paint63_linear_133_446" x1="60.3961" y1="295.55" x2="61.3736" y2="288.636" gradientUnits="userSpaceOnUse">
<stop stop-color="#FFC444"/>
<stop offset="0.9964" stop-color="#F36F56"/>
</linearGradient>
<linearGradient id="paint64_linear_133_446" x1="64.3837" y1="292.049" x2="59.9157" y2="295.018" gradientUnits="userSpaceOnUse">
<stop stop-color="#444B8C"/>
<stop offset="0.9964" stop-color="#26264F"/>
</linearGradient>
<linearGradient id="paint65_linear_133_446" x1="93.0896" y1="294.77" x2="89.0812" y2="298.335" gradientUnits="userSpaceOnUse">
<stop stop-color="#444B8C"/>
<stop offset="0.9964" stop-color="#26264F"/>
</linearGradient>
<linearGradient id="paint66_linear_133_446" x1="89.2286" y1="298.342" x2="89.2286" y2="291.359" gradientUnits="userSpaceOnUse">
<stop stop-color="#FFC444"/>
<stop offset="0.9964" stop-color="#F36F56"/>
</linearGradient>
<linearGradient id="paint67_linear_133_446" x1="89.5575" y1="301.544" x2="63.4198" y2="196.014" gradientUnits="userSpaceOnUse">
<stop stop-color="#444B8C"/>
<stop offset="0.9964" stop-color="#26264F"/>
</linearGradient>
<linearGradient id="paint68_linear_133_446" x1="103.622" y1="148.651" x2="75.5982" y2="213.151" gradientUnits="userSpaceOnUse">
<stop offset="0.0036" stop-color="#E38DDD"/>
<stop offset="1" stop-color="#9571F6"/>
</linearGradient>
<linearGradient id="paint69_linear_133_446" x1="92.6867" y1="294.317" x2="88.6783" y2="297.882" gradientUnits="userSpaceOnUse">
<stop stop-color="#444B8C"/>
<stop offset="0.9964" stop-color="#26264F"/>
</linearGradient>
<linearGradient id="paint70_linear_133_446" x1="85.3459" y1="164.856" x2="72.0121" y2="195.446" gradientUnits="userSpaceOnUse">
<stop stop-color="#FFC444"/>
<stop offset="0.9964" stop-color="#F36F56"/>
</linearGradient>
<linearGradient id="paint71_linear_133_446" x1="83.648" y1="163.941" x2="69.7084" y2="195.921" gradientUnits="userSpaceOnUse">
<stop stop-color="#FFC444"/>
<stop offset="0.9964" stop-color="#F36F56"/>
</linearGradient>
<linearGradient id="paint72_linear_133_446" x1="72.9485" y1="164.255" x2="69.88" y2="171.318" gradientUnits="userSpaceOnUse">
<stop stop-color="#FFC444"/>
<stop offset="0.9964" stop-color="#F36F56"/>
</linearGradient>
<linearGradient id="paint73_linear_133_446" x1="169.172" y1="227.203" x2="162.542" y2="203.545" gradientUnits="userSpaceOnUse">
<stop stop-color="#AA80F9"/>
<stop offset="0.9964" stop-color="#6165D7"/>
</linearGradient>
<clipPath id="clip0_133_446">
<rect width="350" height="350" fill="white"/>
</clipPath>
</defs>
</svg>
